<?xml version="1.0" encoding="utf-8"?>
<!-- Svg Vector Icons : http://www.onlinewebfonts.com/icon -->
<!DOCTYPE svg PUBLIC "-//W3C//DTD SVG 1.1//EN" "http://www.w3.org/Graphics/SVG/1.1/DTD/svg11.dtd">
<svg version="1.1" xmlns="http://www.w3.org/2000/svg" xmlns:xlink="http://www.w3.org/1999/xlink" x="0px" y="0px" viewBox="0 0 1000 1000" enable-background="new 0 0 1000 1000" xml:space="preserve">
<metadata> Svg Vector Icons : http://www.onlinewebfonts.com/icon </metadata>
<g><g transform="translate(0.000000,511.000000) scale(0.100000,-0.100000)"><path d="M7436.6,4563.4c-649.8-145.2-991.9-858.1-693.7-1448.6l55.4-112.8L6311,2510.9c-479.7-479.7-489.2-491.2-489.2-567.6c0-139.5,126.1-240.8,252.2-198.8c42.1,13.4,216,173.9,538.9,496.9l473.9,473.9l109-53.5c395.6-202.6,848.5-128,1167.7,193c321,321.1,393.7,762.5,191.1,1175.3C8357.7,4433.5,7878.1,4660.9,7436.6,4563.4z"/><path d="M1046,3346.1c-112.7-57.3-87.9,107-531.3-3439.9L100-3413.4l38.2-53.5c22.9-28.7,61.1-61.2,86-74.5c24.8-11.5,370.7-59.2,768.2-103.2c808.4-91.7,793.1-93.6,858.1,40.1c30.6,65,21,175.8-248.4,3038.6C1325,2396.3,1325,2405.8,1355.6,2514.7c53.5,179.6,130,261.8,399.4,426.2c114.7,70.7,116.6,250.4,1.9,324.9c-28.7,19.1-158.6,43.9-345.9,66.9C1055.5,3376.6,1101.4,3374.7,1046,3346.1z"/><path d="M3757.8,2767c-1171.5-137.6-1867.1-229.3-1907.2-246.5c-133.8-61.2-149.1,196.8,194.9-3459c223.6-2381.2,317.2-3317.6,338.3-3350.1c13.4-22.9,53.5-55.4,84.1-70.7c55.4-24.8,353.5,5.7,3661.6,384.1c1989.4,225.5,3621.5,420.4,3646.3,433.8c24.8,11.5,63,45.9,84.1,74.5l40.2,53.5L9521.6-390.1c-208.3,1664.5-388,3046.3-399.4,3073c-30.6,63.1-151,122.3-219.8,105.1c-28.7-7.6-108.9-74.5-185.4-156.7c-221.7-238.9-456.8-382.2-737.7-452.9c-156.7-38.2-464.4-40.1-624.9-1.9c-66.9,15.3-143.3,22.9-172,17.2c-32.5-7.6-193-152.9-424.2-380.3c-204.5-202.6-407.1-386-447.2-409c-252.3-131.9-556.1-76.4-745.3,133.8c-110.8,120.4-151,231.2-151,399.4c0,206.4,42.1,290.5,271.4,523.6c103.2,107,198.7,212.1,210.2,235.1c40.1,78.3,24.8,170.1-38.2,233.1c-51.6,51.6-70.7,59.2-156.7,57.3C5645.9,2984.9,4772.6,2887.4,3757.8,2767z"/></g></g>
</svg>